<svg xmlns="http://www.w3.org/2000/svg" viewBox="0 0 214.6 34.86"><defs><style>.cls-1{fill:#00caa5;}.cls-2{fill:gray;}.cls-3{fill:#333;}</style></defs><g id="Layer_2" data-name="Layer 2"><g id="Layer_1-2" data-name="Layer 1"><path class="cls-1" d="M30.81,5.84l8.38,27.27a1.36,1.36,0,0,1-1.3,1.75h-1A9.69,9.69,0,0,1,27.61,28L20.13,3.62C19.58,1.82,19.35,0,22.8,0A8,8,0,0,1,30.81,5.84Z"/><path class="cls-1" d="M41,11.92l2.58-8.6c.86-2.29,1.72-3.44,4-2,2,1.22,4.3,5.16,3.16,10.32l-2.58,7.8c-.54,1.64-1.9,3-4.1,1A9.92,9.92,0,0,1,41,11.92Z"/><path class="cls-1" d="M11,5.84l8.37,27.27a1.36,1.36,0,0,1-1.3,1.75h-1A9.69,9.69,0,0,1,7.8,28L.32,3.62C-.23,1.82-.46,0,3,0A8,8,0,0,1,11,5.84Z"/><path class="cls-2" d="M62.29,33.91h-.77l-2.59-6.86-2.49,6.86h-.77L52.34,25.2h1.38l2.38,6.43,2.35-6.43h1L62,31.63h0l2.28-6.43h1.24Z"/><path class="cls-2" d="M67.52,33.85V25.2h4.9l-.14,1H68.77v2.69h3v1h-3V32.8h3.81l-.16,1.05Z"/><path class="cls-2" d="M82.4,29.47a4.14,4.14,0,0,1-1.27,3.21,5,5,0,0,1-3.52,1.17h-2.5V25.2h2.57a4.92,4.92,0,0,1,3.43,1.17A4,4,0,0,1,82.4,29.47Zm-1.31.12a3.12,3.12,0,0,0-1-2.52,4,4,0,0,0-2.65-.81H76.36v6.52h.84A4.73,4.73,0,0,0,80.11,32,2.9,2.9,0,0,0,81.09,29.59Z"/><path class="cls-2" d="M92.31,29.47A4.14,4.14,0,0,1,91,32.68a5,5,0,0,1-3.51,1.17H85V25.2h2.57A4.9,4.9,0,0,1,91,26.37,4,4,0,0,1,92.31,29.47ZM91,29.59a3.09,3.09,0,0,0-1-2.52,4,4,0,0,0-2.65-.81H86.26v6.52h.84A4.74,4.74,0,0,0,90,32,2.9,2.9,0,0,0,91,29.59Z"/><path class="cls-2" d="M94.91,33.85V25.2h1.26v8.65Z"/><path class="cls-2" d="M106.82,33.85h-1l-5.26-6.77h0v6.77H99.38V25.2h1.21l5,6.49h0V25.2h1.17Z"/><path class="cls-2" d="M116.24,26.77a4.39,4.39,0,0,0-2.18-.56,3.24,3.24,0,0,0-2.37.92,3.13,3.13,0,0,0-.94,2.36,3.37,3.37,0,0,0,.93,2.45,3.15,3.15,0,0,0,2.36,1,3.43,3.43,0,0,0,1.87-.47V30.52h-1.85v-1.1h3.1V33A5.17,5.17,0,0,1,114,34a4.59,4.59,0,0,1-3.3-1.24,4.16,4.16,0,0,1-1.31-3.16,4.38,4.38,0,0,1,1.32-3.23,4.48,4.48,0,0,1,3.32-1.32,5.34,5.34,0,0,1,2.64.71Z"/><path class="cls-2" d="M131.71,29.47a4.14,4.14,0,0,1-1.28,3.21,5,5,0,0,1-3.51,1.17h-2.51V25.2H127a5,5,0,0,1,3.44,1.17A4,4,0,0,1,131.71,29.47Zm-1.32.12a3.12,3.12,0,0,0-1-2.52,4,4,0,0,0-2.66-.81h-1.11v6.52h.84a4.74,4.74,0,0,0,2.92-.74A2.9,2.9,0,0,0,130.39,29.59Z"/><path class="cls-2" d="M135.09,31.5l-.89,2.35H133l3.45-8.65h.94l3.34,8.65h-1.32l-.91-2.35ZM136.81,27l-1.35,3.55h2.66Z"/><path class="cls-2" d="M148.56,25.2l-3,5v3.69h-1.26V30.12l-3-4.92h1.38l2.3,3.89,2.28-3.89Z"/><path class="cls-3" d="M157.83,26.23v7.62h-1.25V26.23H154v-1h6.4l-.16,1Z"/><path class="cls-3" d="M162.58,33.85V25.2h1.25v8.65Z"/><path class="cls-3" d="M175.4,33.85V26.76h0l-3.17,7.05h-.7l-3.22-7h0v7.09h-1.15V25.2h1.72l3.06,6.68,3-6.68h1.73v8.65Z"/><path class="cls-3" d="M179.86,33.85V25.2h4.9l-.14,1h-3.51v2.69h3v1h-3V32.8h3.81l-.16,1.05Z"/><path class="cls-3" d="M187.44,33.85V25.2h1.26v7.6h3.78l-.16,1.05Z"/><path class="cls-3" d="M194.41,33.85V25.2h1.25v8.65Z"/><path class="cls-3" d="M206.32,33.85h-1l-5.26-6.77h0v6.77h-1.16V25.2h1.21l5,6.49h0V25.2h1.18Z"/><path class="cls-3" d="M209.53,33.85V25.2h4.91l-.15,1h-3.5v2.69h3v1h-3V32.8h3.81l-.16,1.05Z"/></g></g></svg>